<svg xmlns="http://www.w3.org/2000/svg" viewBox="0 0 360 200">
  <rect width="360" height="200" fill="#f4f0e6"/>
  <style>
    text { font-family: "Noto Serif TC", "Songti TC", "PMingLiU", "WenQuanYi Micro Hei", "Droid Sans Fallback", serif; fill: #1c1915; font-size: 15px; }
  </style>

  <circle cx="58" cy="92" r="26" fill="#fbf8f1" stroke="#1c1915" stroke-width="1.5"/>
  <circle cx="48" cy="86" r="2.5" fill="#1c1915"/>
  <circle cx="68" cy="86" r="2.5" fill="#1c1915"/>
  <path d="M48,102 Q58,108 68,102" fill="none" stroke="#1c1915" stroke-width="1.5"/>
  <rect x="42" y="122" width="32" height="46" fill="#ebe4d4" stroke="#1c1915" stroke-width="1.5"/>
  <line x1="42" y1="136" x2="18" y2="158" stroke="#1c1915" stroke-width="1.5"/>
  <line x1="74" y1="136" x2="98" y2="158" stroke="#1c1915" stroke-width="1.5"/>
  <rect x="108" y="36" width="118" height="48" rx="8" fill="#fffdf8" stroke="#1c1915" stroke-width="1.5"/>
  <polygon points="118,84 132,84 122,100" fill="#fffdf8" stroke="#1c1915" stroke-width="1.5"/>
  <text x="167" y="66" text-anchor="middle">1+1</text>
  <rect x="214" y="132" width="128" height="40" fill="#fbf8f1" stroke="#1c1915" stroke-width="1.5"/>
  <text x="278" y="157" text-anchor="middle">算式</text>
  <rect x="226" y="84" width="116" height="40" fill="#ebe4d4" stroke="#1c1915" stroke-width="1.5"/>
  <text x="284" y="109" text-anchor="middle">二元樹</text>
  <rect x="238" y="36" width="104" height="40" fill="#fbf8f1" stroke="#1c1915" stroke-width="1.5"/>
  <text x="290" y="61" text-anchor="middle">垃圾回收</text>

</svg>
